{"title":"Blue Mountain State The Rise of Thadland 2016 WEB-DL XviD AC3-FG","uid":13394859,"size":1347076888,"categoryP":"video","categoryS":"movies","magnet":"?xt=urn:btih:da38540ece034993e5b6475fe011a8dc83aba8fb&amp;dn=Blue+Mountain+State+The+Rise+of+Thadland+2016+WEB-DL+XviD+AC3-FG&amp;tr=udp%3A%2F%2Ftracker.leechers-paradise.org%3A6969&amp;tr=udp%3A%2F%2Fzer0day.ch%3A1337&amp;tr=udp%3A%2F%2Fopen.demonii.com%3A1337&amp;tr=udp%3A%2F%2Ftracker.coppersurfer.tk%3A6969&amp;tr=udp%3A%2F%2Fexodus.desync.com%3A6969","seeders":0,"leechers":1,"uploader":".BONE.","files":1,"time":1454367730,"description":"\n0\r\n0\r\nreport\r\nBlue Mountain State The Rise of Thadland 2016 WEB-DL XviD AC3-FGT\r\nseeders: 1leechers: 1updated: 2 hours ago\r\n   DOWNLOAD TORRENT\r\nAdded 2 hours ago by  z0n3211.18M in Movies\t\r\nTorrent verified.\tDownloaded 0 times.\r\nMAIN\r\n \r\nTECHNICAL\r\n \r\nTRAILER\r\n \r\nCOMMENTS\r\n \r\nMovie: Blue Mountain State: The Rise of Thadland\r\nDetected quality: WEB-DL\r\nIMDb link: 3748440\r\nWatch on Solarmovie: Blue Mountain State: The Rise of Thadland\r\nGenres: Comedy, Sport\r\n \r\n add Blue Mountain S...ise of Thadland to bookmarks\r\nRelease date: 02 February 2016\r\nWriters: Eric Falconer, Alan Ritchson, Chris Romano\r\nDirector: Lev L. Spiro\r\nLanguage: English\r\nSubtitles: English\r\nCast: James Cade, Darin Brooks, Alan Ritchson, Rob Ramsay and others Summary:\r\nWhen Thad goes pro into the NFL, he has a clean slate in life to start a new one.\r\nWritten by  LazyRips21.91K\r\nBlue Mountain State The Rise of Thadland 2016 WEB-DL XviD AC3-FGT (Size: 1.25 GB)\r\n \t\tBlue.Mountain.State.The.Rise.of.Thadland.2016.WEB-DL.XviD.AC3-FGT.avi\t1.25 GB\r\n \t\tBlue.Mountain.State.The.Rise.of.Thadland.2016.WEB-DL.XviD.AC3-FGT.nfo\t3.07 KB\r\n \t\tenglish.srt\t115.37 KB\r\n \t\trarbg.com.txt\t34 bytes\r\nDescription\r\n\r\n \nhttps://rarbg.to/\r\n\r\n[mediainfo]\r\nVideo\r\nID : 0\r\nFormat : MPEG-4 Visual\r\nFormat profile :   \r\nFormat settings, BVOP : No\r\nFormat settings, QPel : No\r\nFormat settings, GMC : No warppoints\r\nFormat settings, Matrix : Default (H.263)\r\nCodec ID : XVID\r\nCodec ID/Hint : XviD\r\nDuration : 1h 30mn\r\nBit rate : 1 599 Kbps\r\nWidth : 720 pixels\r\nHeight : 304 pixels\r\nDisplay aspect ratio : 2.35:1\r\nFrame rate : 23.976 fps\r\nColor space : YUV\r\nChroma subsampling : 4:2:0\r\nBit depth : 8 bits\r\nScan type : Progressive\r\nCompression mode : Lossy\r\nBits/(Pixel*Frame) : 0.305\r\nStream size : 1.01 GiB (80%)\r\nWriting library : Lavc56.13.100\r\n\r\nAudio\r\nID : 1\r\nFormat : AC-3\r\nFormat/Info : Audio Coding 3\r\nMode extension : CM (complete main)\r\nFormat settings, Endianness : Big\r\nCodec ID : 2000\r\nDuration : 1h 30mn\r\nBit rate mode : Constant\r\nBit rate : 384 Kbps\r\nChannel(s) : 6 channels\r\nChannel positions : Front: L C R, Side: L R, LFE\r\nSampling rate : 48.0 KHz\r\nFrame rate : 31.250 fps (1536 spf)\r\nCompression mode : Lossy\r\nStream size : 248 MiB (19%)\r\nAlignment : Aligned on interleaves\r\nInterleave, duration : 42 ms (1.00 video frame)\r\nInterleave, preload duration : 512 ms\r\n \nhttp://www.imdb.com/title/tt3748440/\r\n\r\nWhen Thad goes pro into the NFL, he has a clean slate in life to start a new one","torrent":{"xt":"urn:btih:da38540ece034993e5b6475fe011a8dc83aba8fb","amp;dn":"Blue+Mountain+State+The+Rise+of+Thadland+2016+WEB-DL+XviD+AC3-FG","amp;tr":["udp%3A%2F%2Ftracker.leechers-paradise.org%3A6969","udp%3A%2F%2Fzer0day.ch%3A1337","udp%3A%2F%2Fopen.demonii.com%3A1337","udp%3A%2F%2Ftracker.coppersurfer.tk%3A6969","udp%3A%2F%2Fexodus.desync.com%3A6969"],"infoHash":"da38540ece034993e5b6475fe011a8dc83aba8fb","infoHashBuffer":{"type":"Buffer","data":[218,56,84,14,206,3,73,147,229,182,71,95,224,17,168,220,131,171,168,251]},"announce":[],"urlList":[]}}